# Blender 3.5.0
# www.blender.org
mtllib 无标题.mtl
o 立方体
v -0.618539 0.017731 0.938579
v -0.618539 0.073535 0.938579
v -0.618539 0.017731 -1.061421
v -0.618539 0.073535 -1.061421
v 0.482516 0.017731 0.938579
v 0.482516 0.073535 0.938579
v 0.482516 0.017731 -1.061421
v 0.482516 0.073535 -1.061421
v -1.996399 -0.238095 3.334248
v 0.003601 -0.273700 3.317390
v -1.996399 -0.238095 1.334248
v 0.003601 -0.273700 1.317391
vn -1.0000 -0.0000 -0.0000
vn -0.0000 -0.0000 -1.0000
vn 1.0000 -0.0000 -0.0000
vn -0.0000 -0.0000 1.0000
vn -0.0000 -1.0000 -0.0000
vn -0.0000 1.0000 -0.0000
vt 0.375000 0.000000
vt 0.375000 1.000000
vt 0.125000 0.750000
vt 0.625000 0.000000
vt 0.625000 1.000000
vt 0.875000 0.750000
vt 0.375000 0.250000
vt 0.125000 0.500000
vt 0.625000 0.250000
vt 0.875000 0.500000
vt 0.375000 0.750000
vt 0.625000 0.750000
vt 0.375000 0.500000
vt 0.625000 0.500000
s 0
usemtl 材质.001
f 1/1/1 2/4/1 4/9/1 3/7/1
f 3/7/2 4/9/2 8/14/2 7/13/2
f 7/13/3 8/14/3 6/12/3 5/11/3
f 5/11/4 6/12/4 2/5/4 1/2/4
f 3/8/5 7/13/5 5/11/5 1/3/5
f 8/14/6 4/10/6 2/6/6 6/12/6
o 平面.001
v 0.481464 0.077102 0.010220
v -0.606484 0.092684 0.005869
v 0.485190 0.601812 0.957733
v -0.602758 0.617394 0.953382
vn 0.0145 0.8747 -0.4844
vt 0.000000 0.000000
vt 1.000000 0.000000
vt 0.000000 1.000000
vt 1.000000 1.000000
s 0
usemtl 
f 13/15/7 14/16/7 16/18/7 15/17/7
o 平面.006
v 0.478777 0.072088 -0.007728
v -0.609279 0.072666 -0.012611
v 0.476370 0.945914 0.632224
v -0.611687 0.946491 0.627341
vn 0.0039 0.5909 -0.8068
vt 0.000000 0.000000
vt 1.000000 0.000000
vt 0.000000 1.000000
vt 1.000000 1.000000
s 0
usemtl 
f 17/19/8 18/20/8 20/22/8 19/21/8
o 平面.007
v 0.486002 0.075105 0.012889
v -0.602055 0.078293 0.009146
v 0.483317 0.379355 1.052379
v -0.604740 0.382542 1.048636
vn 0.0038 0.9597 -0.2809
vt 0.000000 0.000000
vt 1.000000 0.000000
vt 0.000000 1.000000
vt 1.000000 1.000000
s 0
usemtl 
f 21/23/9 22/24/9 24/26/9 23/25/9
o 平面.010
v 0.471843 0.797594 -0.821888
v -0.616214 0.802490 -0.821448
v 0.468934 0.078440 -0.011997
v -0.619123 0.083336 -0.011557
vn 0.0036 0.7477 0.6640
vt 0.000000 0.000000
vt 1.000000 0.000000
vt 0.000000 1.000000
vt 1.000000 1.000000
s 0
usemtl 
f 25/27/10 26/28/10 28/30/10 27/29/10
o 平面.011
v 0.472229 0.345001 -1.031912
v -0.615828 0.349700 -1.033358
v 0.469593 0.055593 0.031273
v -0.618464 0.060292 0.029827
vn 0.0038 0.9649 0.2627
vt 0.000000 0.000000
vt 1.000000 0.000000
vt 0.000000 1.000000
vt 1.000000 1.000000
s 0
usemtl 
f 29/31/11 30/32/11 32/34/11 31/33/11
o 平面.012
v 0.474372 0.845027 -0.752366
v -0.613684 0.849806 -0.751215
v 0.471760 0.068330 0.002518
v -0.616297 0.073109 0.003670
vn 0.0038 0.6970 0.7171
vt 0.000000 0.000000
vt 1.000000 0.000000
vt 0.000000 1.000000
vt 1.000000 1.000000
s 0
usemtl 
f 33/35/12 34/36/12 36/38/12 35/37/12
o 平面.013
v 0.476667 0.059070 0.008796
v -0.611390 0.056266 0.004757
v 0.474364 1.134779 -0.117538
v -0.613693 1.131975 -0.121577
vn 0.0040 -0.1166 -0.9932
vt 0.000000 0.000000
vt 1.000000 0.000000
vt 0.000000 1.000000
vt 1.000000 1.000000
s 0
usemtl 
f 37/39/13 38/40/13 40/42/13 39/41/13
